<?xml version="1.0" standalone="no"?>
<!DOCTYPE svg PUBLIC "-//W3C//DTD SVG 20010904//EN"
 "http://www.w3.org/TR/2001/REC-SVG-20010904/DTD/svg10.dtd">
<svg version="1.0" xmlns="http://www.w3.org/2000/svg"
 width="700.000000pt" height="700.000000pt" viewBox="0 0 700.000000 700.000000"
 preserveAspectRatio="xMidYMid meet">
<metadata>
Created by potrace 1.11, written by Peter Selinger 2001-2013
</metadata>
<g transform="translate(0.000000,700.000000) scale(0.100000,-0.100000)"
fill="#000000" stroke="none">
<path d="M6221 6670 c-24 -121 -94 -236 -191 -312 -67 -53 -113 -76 -201 -102
l-80 -23 58 -13 c32 -7 87 -26 123 -43 84 -40 205 -159 242 -238 31 -67 58
-153 58 -187 0 -39 7 -23 14 32 13 97 83 226 161 299 37 35 124 93 162 109 16
6 60 19 98 29 39 9 61 18 50 19 -217 16 -423 207 -469 433 l-13 61 -12 -64z"/>
<path d="M2062 6660 c-39 -186 -194 -350 -384 -404 -31 -9 -67 -16 -80 -17
-12 -1 6 -7 41 -15 168 -37 307 -146 381 -298 22 -45 43 -103 46 -129 4 -26
11 -47 16 -47 5 0 7 4 4 8 -3 5 2 35 10 68 52 200 232 365 434 399 40 7 52 15
24 16 -102 4 -251 83 -334 176 -71 80 -135 214 -132 275 0 10 -3 20 -7 22 -4
3 -13 -21 -19 -54z"/>
<path d="M752 5903 c-18 -96 -74 -196 -152 -273 -58 -57 -86 -76 -203 -132 -9
-5 -38 -11 -62 -15 -25 -3 -45 -9 -45 -12 0 -4 24 -12 53 -18 199 -42 370
-220 411 -428 8 -38 15 -59 15 -45 2 47 39 160 72 217 70 122 214 229 345 255
30 6 54 15 54 19 0 5 -3 8 -7 7 -12 -3 -74 12 -103 23 -89 37 -142 72 -203
132 -77 77 -129 172 -150 275 l-13 61 -12 -66z"/>
<path d="M4918 5940 c-4 -8 -11 -36 -17 -61 -38 -162 -163 -304 -329 -371 -37
-15 -79 -28 -94 -28 -42 0 -33 -17 12 -24 23 -3 49 -10 58 -15 127 -60 155
-78 210 -132 70 -69 133 -182 153 -276 l12 -58 13 61 c46 224 256 415 464 424
28 1 19 6 -44 21 -110 27 -189 72 -272 154 -83 83 -141 191 -157 295 -2 17 -5
20 -9 10z"/>
<path d="M3529 4336 c-2 -2 -53 -7 -114 -10 -60 -4 -135 -9 -165 -11 -80 -6
-215 -15 -290 -20 -36 -3 -96 -7 -135 -10 -38 -2 -106 -7 -150 -10 -75 -5
-164 -11 -280 -20 -27 -2 -96 -7 -152 -10 -100 -6 -155 -9 -278 -20 -33 -2
-109 -7 -170 -10 -60 -3 -123 -8 -140 -10 -16 -2 -75 -7 -130 -10 -144 -9
-218 -22 -320 -56 -175 -59 -332 -167 -446 -309 -38 -47 -227 -314 -291 -412
-124 -186 -206 -412 -238 -648 -13 -95 -17 -1343 -5 -1401 7 -34 44 -92 75
-117 53 -43 70 -45 430 -47 190 -1 350 -4 356 -7 5 -4 11 -30 12 -59 13 -310
276 -614 587 -679 33 -7 63 -16 67 -19 4 -3 -339 -6 -762 -5 -552 1 -770 -2
-771 -10 -2 -27 2 -200 4 -203 3 -3 1105 -4 4709 -3 l1847 0 3 88 c2 48 2 96
0 108 l-3 21 -755 -1 c-416 -1 -761 2 -767 6 -7 5 -2 8 13 8 94 1 295 101 395
197 141 134 232 328 239 508 0 18 5 37 9 41 4 4 164 8 355 9 379 2 387 3 446
62 16 15 37 47 48 70 17 38 18 75 19 475 2 507 -1 526 -88 664 -81 129 -212
213 -393 252 -243 53 -377 82 -400 86 -21 3 -102 21 -310 67 -25 5 -54 11 -65
13 -11 3 -40 9 -65 15 -25 5 -58 12 -74 15 -16 3 -53 11 -83 17 l-54 12 -141
186 c-169 222 -240 314 -276 360 -35 45 -112 145 -242 317 -227 300 -373 413
-630 491 -74 22 -108 26 -256 30 -93 2 -172 2 -175 -1z m842 -3136 c0 -3 2
-21 4 -40 37 -359 265 -627 602 -704 34 -8 64 -12 67 -10 3 2 4 1 1 -3 -6 -8
-3063 -8 -3072 0 -3 4 5 7 20 7 37 0 188 55 250 91 197 117 331 311 369 535 8
43 13 88 13 99 0 11 3 22 7 25 3 3 396 5 872 5 476 0 866 -2 867 -5z"/>
</g>
</svg>
