<svg id="Layer_3" enable-background="new 0 0 64 64" viewBox="0 0 64 64" xmlns="http://www.w3.org/2000/svg"><path d="m54 53h6c1.105 0 2-.895 2-2v-6.958c0-2.358-1.647-4.395-3.952-4.889l-10.048-2.153-7.059-9.177c-1.837-2.388-4.747-3.699-7.753-3.491l-19.899 1.372c-2.712.187-5.195 1.59-6.754 3.818l-2.004 2.863c-1.647 2.353-2.531 5.156-2.531 8.028v10.587c0 1.105.895 2 2 2h6" fill="#243242"/><path d="m20.5 44c11.303 0 21.009-4.093 25.237-9.942l-4.796-6.235c-1.837-2.388-4.747-3.699-7.753-3.491l-19.899 1.372c-2.712.187-5.195 1.59-6.754 3.818l-2.004 2.863c-1.515 2.164-2.374 4.709-2.504 7.338 4.881 2.657 11.362 4.277 18.473 4.277z" fill="#4d5d7a"/><path d="m2 42h4v4l-3 3h-1z" fill="#e47c6e"/><path d="m58 47h4v-2.958c0-.358-.049-.703-.122-1.042h-3.878z" fill="#f9d18b"/><circle cx="47" cy="53" fill="#4d5d7a" r="7"/><circle cx="17" cy="53" fill="#4d5d7a" r="7"/><circle cx="47" cy="53" fill="#8892a0" r="3"/><circle cx="17" cy="53" fill="#8892a0" r="3"/><path d="m6 38h37l-5.358-7.655c-1.017-1.453-2.727-2.258-4.495-2.117l-19.639 1.571c-1.578.126-3.002.992-3.841 2.334z" fill="#c7e2fc"/><path d="m17 35c8.759 0 16.259-2.428 19.409-5.875-.938-.657-2.085-.991-3.262-.896l-19.639 1.571c-1.578.126-3.002.992-3.841 2.334l-1.267 2.027c2.627.534 5.532.839 8.6.839z" fill="#ebf7fe"/><g fill="#a1cdfb"><path d="m50 14c-2.761 0-5 2.239-5 5 0-2.761-2.239-5-5-5 2.761 0 5-2.239 5-5 0 2.761 2.239 5 5 5z"/><path d="m62 7c-2.761 0-5 2.239-5 5 0-2.761-2.239-5-5-5 2.761 0 5-2.239 5-5 0 2.761 2.239 5 5 5z"/><path d="m12 14c-2.761 0-5 2.239-5 5 0-2.761-2.239-5-5-5 2.761 0 5-2.239 5-5 0 2.761 2.239 5 5 5z"/><path d="m24 7c-2.761 0-5 2.239-5 5 0-2.761-2.239-5-5-5 2.761 0 5-2.239 5-5 0 2.761 2.239 5 5 5z"/></g><path d="m2 60h60v2h-60z" fill="#8892a0"/><path d="m28 28.64v9.36h2v-9.52z" fill="#243242"/><path d="m28 41h4v2h-4z" fill="#fff"/><path d="m16 41h4v2h-4z" fill="#fff"/><path d="m16 29.6v8.4h2v-8.56z" fill="#243242"/></svg>
